<svg width="40" height="21" viewBox="0 0 40 21" fill="none" xmlns="http://www.w3.org/2000/svg">
<rect x="11" y="10" width="2" height="1" fill="#AFAFAF"/>
<rect x="26" y="7" width="2" height="1" fill="#AFAFAF"/>
<rect x="22" y="12" width="3" height="1" fill="#AFAFAF"/>
<rect x="13" y="6" width="3" height="1" fill="#AFAFAF"/>
<rect x="19" y="9" width="3" height="1" fill="#AFAFAF"/>
<rect x="16" y="15" width="3" height="1" fill="#AFAFAF"/>
<rect width="1" height="5" transform="matrix(-1 0 0 1 14 6)" fill="#AFAFAF"/>
<rect width="1" height="10" transform="matrix(-1 0 0 1 17 6)" fill="#AFAFAF"/>
<rect width="1" height="6" transform="matrix(-1 0 0 1 26 7)" fill="#AFAFAF"/>
<rect width="1" height="7" transform="matrix(-1 0 0 1 20 9)" fill="#AFAFAF"/>
<rect width="1" height="4" transform="matrix(-1 0 0 1 23 9)" fill="#AFAFAF"/>
</svg>
