<svg width="40" height="21" viewBox="0 0 40 21" fill="none" xmlns="http://www.w3.org/2000/svg">
<path d="M11 11.0757C11.0433 10.0536 11.7451 6.49644 12 7.07566C12.2549 7.65489 12.4002 13.009 12.9002 14.009C13.4002 15.009 13.5303 10.5071 14 11.0757C14.4697 11.6442 14.3122 16.8023 14.7789 16.2832C15.2455 15.764 15.4447 9.87754 16 9.07565C16.5553 8.27377 16.4648 13.342 17 13.0757C17.5352 12.8093 17.6408 7.51029 18.1408 8.01029C18.6408 8.51029 18.5352 14.0593 19 15.0757C19.4648 16.092 19.5062 11.7985 20 12.0757C20.4938 12.3528 20.5172 16.8118 21 16.0757C21.4828 15.3395 21.4312 9.88093 21.9312 9.13093C22.4312 8.38093 22.5221 13.3476 23 13.0757C23.4779 12.8037 23.3428 7.54326 23.8428 8.04326C24.3428 8.54326 24.4607 14.0676 25 15.0757C25.5393 16.0838 25.5148 12.3506 26 12.0757C26.4853 11.8007 26.4411 15.226 26.9411 13.976C27.441 12.726 27.4853 7.80075 28 7.07566C28.5147 6.35058 29 11.0757 29 11.0757" stroke="#AFAFAF" stroke-width="0.75"/>
</svg>
