<svg width="40" height="21" viewBox="0 0 40 21" fill="none" xmlns="http://www.w3.org/2000/svg">
<path d="M15.1763 10L15.024 10.9375H11.6334L11.7857 10H15.1763ZM11.7154 16L12.8326 9.30469C12.8899 8.92969 13.0214 8.61849 13.2271 8.37109C13.4328 8.12109 13.6815 7.9349 13.9732 7.8125C14.2649 7.6875 14.5696 7.625 14.8873 7.625C15.1216 7.625 15.3183 7.64453 15.4771 7.68359C15.6386 7.72005 15.7558 7.75391 15.8287 7.78516L15.4029 8.73047C15.3508 8.71484 15.2844 8.69661 15.2037 8.67578C15.1229 8.65234 15.0214 8.64062 14.899 8.64062C14.6151 8.64062 14.4003 8.71094 14.2545 8.85156C14.1112 8.99219 14.0149 9.19531 13.9654 9.46094L12.8834 16H11.7154ZM16.4409 12.6797C16.6024 11.7005 16.8797 10.7995 17.273 9.97656C17.6662 9.15365 18.1688 8.39453 18.7808 7.69922H19.8511C19.6167 7.95703 19.3849 8.27344 19.1558 8.64844C18.9266 9.02344 18.7131 9.4349 18.5152 9.88281C18.3172 10.3281 18.1428 10.7904 17.9917 11.2695C17.8433 11.7461 17.73 12.2161 17.6519 12.6797C17.5477 13.2995 17.5034 13.9271 17.5191 14.5625C17.5373 15.1979 17.605 15.7878 17.7222 16.332C17.842 16.8763 18.0021 17.3203 18.2027 17.6641H17.1284C16.7508 16.9688 16.5008 16.2096 16.3784 15.3867C16.256 14.5638 16.2769 13.6615 16.4409 12.6797ZM21.7905 10L22.728 12.3359L24.4507 10H25.728L23.3569 13L24.7436 16H23.4663L22.4897 13.7578L20.7671 16H19.4858L21.853 13L20.5093 10H21.7905ZM28.893 12.6797C28.7289 13.6615 28.4503 14.5638 28.0571 15.3867C27.6664 16.2096 27.1638 16.9688 26.5493 17.6641H25.4789C25.7159 17.4063 25.9477 17.0898 26.1743 16.7148C26.4034 16.3398 26.617 15.9297 26.8149 15.4844C27.0154 15.0365 27.1899 14.5729 27.3383 14.0938C27.4868 13.6146 27.6 13.1432 27.6782 12.6797C27.7823 12.0625 27.8253 11.4362 27.8071 10.8008C27.7914 10.1654 27.7237 9.57552 27.6039 9.03125C27.4868 8.48698 27.3279 8.04297 27.1274 7.69922H28.2016C28.5792 8.39453 28.8292 9.15365 28.9516 9.97656C29.074 10.7995 29.0545 11.7005 28.893 12.6797Z" fill="#AFAFAF"/>
</svg>
