<svg width="24" height="24" viewBox="0 0 24 24" fill="none" xmlns="http://www.w3.org/2000/svg">
<path fill-rule="evenodd" clip-rule="evenodd" d="M8 5.04999C8 4.4977 8.44772 4.04999 9 4.04999H15C15.5523 4.04999 16 4.4977 16 5.04999V6.04999H18V7.54999H16V9.54999H18V11.05H16V13.05H18V14.55H16V16.55H18V18.05H16V19.05C16 19.6023 15.5523 20.05 15 20.05H9C8.44772 20.05 8 19.6023 8 19.05V18.05H6V16.55H8V14.55H6V13.05H8V11.05H6V9.54999H8V7.54999H6V6.04999H8V5.04999ZM9.5 18.55V5.54999H14.5V18.55H9.5Z" fill="#AFAFAF"/>
</svg>
