<svg width="24" height="24" viewBox="0 0 24 24" fill="none" xmlns="http://www.w3.org/2000/svg">
<path d="M20.8508 15.0309L20.4159 15.4576C20.2164 15.6519 19.8927 15.6519 19.6932 15.4576L17.0378 12.8716H13.8723C13.8266 12.9671 13.771 13.0563 13.7121 13.1423L15.2949 15.8143L18.9214 16.7602C19.1928 16.8303 19.3564 17.1042 19.2844 17.3685L19.1242 17.9481C19.049 18.2125 18.771 18.3717 18.4963 18.2985L15.2131 17.4449L14.3432 20.6106C14.2713 20.875 13.9901 21.0342 13.7187 20.961L13.1235 20.8049C12.8521 20.7348 12.6886 20.4609 12.7638 20.1934L13.7906 16.464L12.3223 13.9894C12.2177 14.0054 12.1098 14.0149 12.0018 14.0149C11.9462 14.0149 11.8939 14.0117 11.8416 14.0086L10.2589 16.6806L11.2268 20.2157C11.2988 20.4801 11.1385 20.7539 10.8638 20.8272L10.2687 20.9832C9.99725 21.0533 9.71602 20.8973 9.64408 20.6329L8.76441 17.4386L5.51391 18.2857C5.24249 18.3558 4.96126 18.1997 4.88932 17.9354L4.72908 17.3558C4.65714 17.0914 4.81737 16.8175 5.09206 16.7475L8.92138 15.7475L10.3897 13.2729C10.2883 13.1518 10.2 13.0181 10.1313 12.8748H6.96585L4.3105 15.4608C4.11102 15.6551 3.78728 15.6551 3.58781 15.4608L3.14961 15.0341C2.95013 14.8398 2.95013 14.5245 3.14961 14.3302L5.54988 11.9926L3.16923 9.67087C2.96975 9.4766 2.96975 9.1613 3.16923 8.96703L3.60416 8.54346C3.80363 8.34918 4.12738 8.34918 4.32685 8.54346L7.12935 11.276H10.0627C10.1411 11.0785 10.2491 10.8938 10.3864 10.7314L8.91811 8.25682L5.08879 7.2568C4.81737 7.18673 4.65387 6.91284 4.72908 6.6485L4.88932 6.06887C4.96126 5.80453 5.24249 5.6453 5.51391 5.71855L8.76441 6.5657L9.64408 3.36817C9.71602 3.10383 9.99725 2.94459 10.2687 3.01784L10.8638 3.1739C11.1353 3.24396 11.2988 3.51785 11.2268 3.78219L10.2556 7.31413L11.8383 9.98617C11.8907 9.98298 11.9462 9.9798 11.9986 9.9798C12.1098 9.9798 12.2144 9.98935 12.319 10.0053L13.7873 7.53069L12.7605 3.8013C12.6886 3.53696 12.8488 3.26307 13.1202 3.19301L13.7154 3.03695C13.9868 2.96689 14.268 3.12294 14.34 3.38728L15.2098 6.55296L18.4898 5.69625C18.7612 5.62619 19.0424 5.78224 19.1144 6.04658L19.2746 6.62621C19.3465 6.89055 19.1863 7.16444 18.9116 7.23451L15.285 8.18039L13.7023 10.8524C13.7939 10.983 13.8691 11.12 13.9279 11.2696H16.8612L19.667 8.53709C19.8665 8.34281 20.1902 8.34281 20.3897 8.53709L20.8279 8.96066C21.0274 9.15494 21.0274 9.47023 20.8279 9.6645L18.4473 11.983L20.8475 14.3207C21.0503 14.5213 21.0503 14.8366 20.8508 15.0309Z" fill="#AFAFAF"/>
</svg>
