<svg width="24" height="24" viewBox="0 0 24 24" fill="none" xmlns="http://www.w3.org/2000/svg">
<path d="M17.3366 10.9327L14.1345 14.1346C13.2501 15.0192 11.8171 15.0192 10.9326 14.1346L9.86534 13.0672L10.9326 12.0001L12 13.0672C12.2948 13.3615 12.7731 13.3621 13.0674 13.0672L16.2693 9.86538C16.5634 9.57091 16.5634 9.09217 16.2693 8.79763L15.202 7.73035C14.9077 7.43631 14.4288 7.43631 14.1345 7.73035L12.9914 8.87366C12.4615 8.56178 11.8592 8.42802 11.2629 8.46819L13.0674 6.66307C13.9518 5.77898 15.3855 5.77898 16.2693 6.66307L17.3367 7.73035C18.2211 8.61449 18.2211 10.0486 17.3366 10.9327ZM11.0079 15.1269L9.86536 16.2693C9.57055 16.5641 9.0922 16.5634 8.79808 16.2693L7.73072 15.202C7.43591 14.9078 7.43591 14.4294 7.73072 14.1346L10.9326 10.9326C11.2268 10.6386 11.7059 10.6386 12 10.9326L13.0674 12L14.1346 10.9326L13.0674 9.86535C12.1828 8.98126 10.7499 8.98126 9.86539 9.86535L6.66339 13.0672C5.77887 13.9519 5.77887 15.3856 6.66339 16.2693L7.73072 17.3366C8.61455 18.2211 10.0482 18.2211 10.9326 17.3366L12.737 15.5321C12.1408 15.5719 11.54 15.4379 11.0079 15.1269Z" fill="#AFAFAF"/>
</svg>
