<svg width="24" height="24" viewBox="0 0 24 24" fill="none" xmlns="http://www.w3.org/2000/svg">
<path d="M11.2098 4.00626C9.75236 4.12375 8.53008 4.80549 7.68379 5.88171C7.5293 6.0792 7.40215 6.27544 7.26953 6.51919C7.07539 6.88042 6.95234 7.20666 6.86621 7.5879C6.76504 8.03914 6.75684 8.20913 6.75684 9.76408L6.75 11H6.38768H5V15.6017V20H12H19V15.5189L18.9932 11H17.8311H17.25L17.2568 9.67158C17.2568 8.87036 17.2514 8.24538 17.2432 8.15663C17.1584 7.22541 17.0176 6.40419 16.375 5.66921C16.2342 5.50797 15.7889 5.13298 15.6139 5.00548C14.8565 4.45425 14.0484 4.14176 13.0914 4.03052C12.8877 4.00802 11.4094 3.99001 11.2098 4.00626ZM12.7154 5.77546C13.5604 5.83796 14.2672 6.16795 14.8141 6.75668C15.0916 7.05542 15.309 7.44541 15.4143 7.83789C15.5031 8.16663 15.5004 8.10913 15.5072 9.64033V11H12.0424H8.49316L8.5 9.64033C8.5 8.16663 8.5 8.16163 8.56973 7.87789C8.63809 7.5929 8.81172 7.22041 8.98535 6.98167C9.41328 6.39669 10.183 5.99244 10.9131 5.8362C11.2399 5.7662 12.4215 5.75421 12.7154 5.77546Z" fill="#AFAFAF"/>
</svg>
