<svg width="24" height="24" viewBox="0 0 24 24" fill="none" xmlns="http://www.w3.org/2000/svg">
<path fill-rule="evenodd" clip-rule="evenodd" d="M20 12.0311C20 16.1265 16.9463 19.506 13 20V16.0466H11V20C7.05369 19.506 4 16.1265 4 12.0311C4 7.59563 7.58172 4 12 4C16.4183 4 20 7.59563 20 12.0311ZM6.5 12.533C7.05228 12.533 7.5 12.0836 7.5 11.5291C7.5 10.9747 7.05228 10.5252 6.5 10.5252C5.94772 10.5252 5.5 10.9747 5.5 11.5291C5.5 12.0836 5.94772 12.533 6.5 12.533ZM9.5 8.51748C9.5 9.0719 9.05228 9.52136 8.5 9.52136C7.94772 9.52136 7.5 9.0719 7.5 8.51748C7.5 7.96305 7.94772 7.51359 8.5 7.51359C9.05228 7.51359 9.5 7.96305 9.5 8.51748ZM12 8.01553C12.5523 8.01553 13 7.56608 13 7.01165C13 6.45722 12.5523 6.00777 12 6.00777C11.4477 6.00777 11 6.45722 11 7.01165C11 7.56608 11.4477 8.01553 12 8.01553ZM16.5 8.51748C16.5 9.0719 16.0523 9.52136 15.5 9.52136C14.9477 9.52136 14.5 9.0719 14.5 8.51748C14.5 7.96305 14.9477 7.51359 15.5 7.51359C16.0523 7.51359 16.5 7.96305 16.5 8.51748ZM17.5 12.533C18.0523 12.533 18.5 12.0836 18.5 11.5291C18.5 10.9747 18.0523 10.5252 17.5 10.5252C16.9477 10.5252 16.5 10.9747 16.5 11.5291C16.5 12.0836 16.9477 12.533 17.5 12.533Z" fill="#AFAFAF"/>
</svg>
