<?xml version="1.0" encoding="utf-8"?>
<svg class="svg-icon" style="width: 1.37891em; height: 1em; vertical-align: middle; fill: rgb(175, 175, 175); overflow: hidden;" viewBox="0 0 1400 1400" version="1.1" xmlns="http://www.w3.org/2000/svg">
  <path d="M 1126.313 798.932 C 1133.708 764.838 1138.058 726.97 1138.058 685.139 C 1138.058 411.506 951.632 307.714 951.632 307.714 L 951.632 384.709 C 951.632 384.709 1075.916 466.547 1075.916 685.139 C 1075.916 713.131 1073.865 738.796 1070.323 762.322 L 1126.313 798.932 Z" style=""/>
  <path d="M 951.632 684.636 C 951.383 448.745 765.206 370.618 765.206 370.618 L 765.206 440.505 C 765.206 440.505 870.723 485.796 887.315 642.553 L 951.632 684.636 Z" style=""/>
  <path d="M 1293.288 908.197 C 1311.931 849.382 1324.484 775.972 1324.484 685.139 C 1324.484 335.329 1138.058 244.81 1138.058 244.81 L 1138.058 326.46 C 1138.058 326.46 1262.342 395.906 1262.342 685.139 C 1262.342 762.888 1253.331 824.723 1240.219 873.474 L 1293.288 908.197 Z" style=""/>
  <path d="M 141.425 295.259 L 1356.424 1105.087 L 1390.354 1052.373 L 175.355 242.546 L 141.425 295.259 Z" style=""/>
  <path d="M 435.543 346.966 L 703.064 522.029 L 703.064 181.906 L 435.543 346.966 Z" style=""/>
  <path d="M 1138.058 1125.468 C 1138.058 1125.468 1166.954 1111.44 1201.94 1073.131 L 1146.385 1036.773 C 1141.165 1040.736 1138.058 1042.434 1138.058 1042.434 L 1138.058 1125.468 Z" style=""/>
  <path d="M 19.503 550.964 L 19.503 819.376 C 19.503 819.376 19.503 886.495 84.255 886.495 L 213.696 886.495 L 703.064 1188.372 L 703.064 746.722 L 258.749 456.042 L 213.696 483.846 L 84.255 483.846 C 19.503 483.846 19.503 550.964 19.503 550.964 Z" style=""/>
  <path d="M 765.206 929.773 L 765.206 999.659 C 765.206 999.659 845.493 965.943 900.675 876.053 L 851.645 843.972 C 815.106 908.323 765.206 929.773 765.206 929.773 Z" style=""/>
  <path d="M 951.632 982.927 L 951.632 1062.564 C 951.632 1062.564 1000.351 1035.452 1047.952 972.359 L 996.995 939.02 C 972.449 969.654 951.632 982.927 951.632 982.927 Z" style=""/>
</svg>