<svg width="24" height="24" viewBox="0 0 24 24" fill="none" xmlns="http://www.w3.org/2000/svg">
<path fill-rule="evenodd" clip-rule="evenodd" d="M13 7H11V8.12602C10.633 8.22048 10.2863 8.36573 9.96803 8.55382L9.17157 7.75736L7.75735 9.17157L8.55382 9.96803C8.36573 10.2863 8.22048 10.633 8.12602 11H7V13H8.12602C8.22048 13.367 8.36572 13.7136 8.55381 14.0319L7.75736 14.8284L9.17157 16.2426L9.96801 15.4462C10.2863 15.6343 10.633 15.7795 11 15.874V17H13V15.874C13.367 15.7795 13.7137 15.6343 14.032 15.4462L14.8284 16.2426L16.2426 14.8284L15.4462 14.032C15.6343 13.7137 15.7795 13.367 15.874 13H17V11H15.874C15.7795 10.633 15.6343 10.2863 15.4462 9.96801L16.2426 9.17154L14.8284 7.75732L14.0319 8.55381C13.7136 8.36572 13.367 8.22048 13 8.12602V7ZM12 14C13.1046 14 14 13.1046 14 12C14 10.8954 13.1046 10 12 10C10.8954 10 10 10.8954 10 12C10 13.1046 10.8954 14 12 14Z" fill="#AFAFAF"/>
</svg>
