<svg width="24" height="24" viewBox="0 0 24 24" fill="none" xmlns="http://www.w3.org/2000/svg">
<path fill-rule="evenodd" clip-rule="evenodd" d="M17.9277 9.48509C17.7897 9.48509 17.6972 9.37486 17.7211 9.23889L18.3818 5.4924C18.4297 5.22046 18.2447 5 17.9686 5H7.96857C7.69243 5 7.42969 5.22046 7.38174 5.4924L5.08681 18.5076C5.03886 18.7795 5.22385 19 5.49999 19H15.5C15.7761 19 16.0389 18.7795 16.0868 18.5076L16.7559 14.7133C16.7798 14.5774 16.9112 14.4671 17.0493 14.4671H17.7028C17.858 14.4671 18 14.3294 18 14.1788L18 12.8205C18 12.7025 17.9112 12.6164 17.7897 12.6164H14.2972C14.142 12.6164 14 12.7542 14 12.9047L14 14.263C14 14.381 14.0888 14.4671 14.2103 14.4671H15.0386C15.1767 14.4671 15.2692 14.5774 15.2452 14.7133L14.902 16.6601C14.854 16.932 14.5913 17.1525 14.3151 17.1525H7.33377C7.05763 17.1525 6.87264 16.932 6.92059 16.6601L8.56397 7.33998C8.61193 7.06803 8.87466 6.84757 9.1508 6.84757H16.1322C16.4083 6.84757 16.5933 7.06803 16.5453 7.33998L16.2105 9.23889C16.1865 9.37486 16.0552 9.48509 15.9171 9.48509H13.2972C13.142 9.48509 13 9.62285 13 9.77341L13 11.1318C13 11.2497 13.0888 11.3358 13.2103 11.3358H19.1828C19.338 11.3358 19.48 11.1981 19.48 11.0475L19.48 9.68917C19.48 9.57121 19.3912 9.48509 19.2697 9.48509H17.9277Z" fill="#AFAFAF"/>
</svg>
