<svg width="16" height="16" viewBox="0 0 16 16" fill="none" xmlns="http://www.w3.org/2000/svg">
<path d="M8.12711 11.738C5.85011 11.738 3.99611 9.884 3.99611 7.607C3.99611 5.33 5.85011 3.476 8.12711 3.476C10.4041 3.476 12.2581 5.33 12.2581 7.607C12.2581 9.884 10.4041 11.738 8.12711 11.738ZM8.12711 10.964C9.98111 10.964 11.4841 9.461 11.4841 7.607C11.4841 5.753 9.98111 4.25 8.12711 4.25C6.27311 4.25 4.77011 5.753 4.77011 7.607C4.77011 9.461 6.27311 10.964 8.12711 10.964ZM8.12711 6.14C7.85711 6.14 7.63211 6.041 7.63211 5.699C7.63211 5.339 7.88411 5.258 8.12711 5.258C8.43311 5.258 8.61311 5.393 8.61311 5.699C8.61311 6.041 8.37011 6.14 8.12711 6.14ZM7.66811 9.866V6.554H8.57711V9.866H7.66811Z" fill="#AFAFAF"/>
</svg>
