<svg width="24" height="24" viewBox="0 0 24 24" fill="none" xmlns="http://www.w3.org/2000/svg">
<path d="M7 8H4V16H7.5L10 20H11V4H10L7 8Z" fill="#AFAFAF"/>
<path d="M12.5048 9.32009C13.6282 10.6682 13.623 11.9889 13.3446 12.9912C13.2033 13.5001 12.99 13.9276 12.8108 14.2286C12.7216 14.3784 12.6421 14.495 12.5861 14.5725C12.5581 14.6112 12.5362 14.64 12.522 14.6582L12.5069 14.6773L12.5043 14.6805L12.1847 15.064L12.9529 15.7042L13.273 15.3201L12.8889 15C13.273 15.3201 13.2728 15.3203 13.273 15.3201L13.2737 15.3192L13.2747 15.3181L13.2773 15.3149L13.2851 15.3053C13.2915 15.2974 13.3001 15.2866 13.3107 15.273C13.3319 15.2458 13.3612 15.2072 13.3968 15.158C13.4678 15.0597 13.564 14.9184 13.6701 14.7401C13.8816 14.3849 14.137 13.8749 14.3081 13.2588C14.6547 12.0111 14.6496 10.3318 13.273 8.67991L12.9529 8.2958L12.1847 8.93598L12.5048 9.32009Z" fill="#AFAFAF"/>
<path d="M16.2778 13.7652C16.6782 11.9856 16.6762 9.63614 15.0856 7.27974L14.8058 6.86531L15.6347 6.30584L15.9144 6.72026C17.6988 9.36386 17.6968 12.0144 17.2534 13.9848C17.0323 14.9676 16.7011 15.7852 16.425 16.3578C16.2867 16.6445 16.1617 16.8712 16.07 17.0279C16.0242 17.1062 15.9866 17.1672 15.9598 17.2096C15.9465 17.2308 15.9358 17.2473 15.9281 17.259L15.9189 17.273L15.9161 17.2773L15.9151 17.2788C15.9149 17.279 15.9144 17.2797 15.5082 17.0055L15.9144 17.2797L15.6347 17.6942L14.8058 17.1347L15.0852 16.7209L15.086 16.7197L15.091 16.712C15.0959 16.7045 15.1038 16.6923 15.1143 16.6757C15.1354 16.6423 15.167 16.591 15.2069 16.5229C15.2866 16.3866 15.3988 16.1836 15.5242 15.9235C15.7755 15.4023 16.0771 14.6574 16.2778 13.7652Z" fill="#AFAFAF"/>
<path d="M17.5794 5.27038C19.7389 8.62959 19.7418 11.9852 19.1986 14.5202C18.9267 15.7892 18.5184 16.8478 18.1784 17.5882C18.0086 17.958 17.8564 18.2472 17.7478 18.4422C17.6935 18.5397 17.6501 18.6135 17.621 18.662C17.6064 18.6862 17.5953 18.7041 17.5883 18.7155L17.5807 18.7276L17.5794 18.7296L17.309 19.1502L18.1502 19.691L18.4206 19.2704L18.0275 19.0177C18.4206 19.2704 18.4204 19.2706 18.4206 19.2704L18.4213 19.2693L18.4224 19.2676L18.4258 19.2622L18.4373 19.2439C18.4469 19.2284 18.4606 19.2061 18.4779 19.1774C18.5125 19.1199 18.5614 19.0365 18.6214 18.9289C18.7412 18.7137 18.9054 18.4014 19.0872 18.0055C19.4503 17.2147 19.8858 16.0858 20.1764 14.7298C20.7582 12.0148 20.7611 8.37041 18.4206 4.72962L18.1502 4.30903L17.309 4.84979L17.5794 5.27038Z" fill="#AFAFAF"/>
</svg>
