<svg width="24" height="24" viewBox="0 0 24 24" fill="none" xmlns="http://www.w3.org/2000/svg">
<path d="M10 11.9999V7.99988H8V11.9999H10Z" fill="#AFAFAF"/>
<path d="M7 9.99993V11.9999H5V9.99993H7Z" fill="#AFAFAF"/>
<path d="M19 11.9999V1.99988H17V11.9999H19Z" fill="#AFAFAF"/>
<path d="M13 5.99993V11.9999H11V5.99993H13Z" fill="#AFAFAF"/>
<path d="M16 3.99999V11.9999H14V3.99999H16Z" fill="#AFAFAF"/>
<path d="M4.73483 18.7348C4.58839 18.8813 4.58839 19.1187 4.73483 19.2652L7.12132 21.6517C7.26777 21.7981 7.5052 21.7981 7.65165 21.6517C7.7981 21.5052 7.7981 21.2678 7.65165 21.1213L5.53033 19L7.65165 16.8787C7.7981 16.7322 7.7981 16.4948 7.65165 16.3483C7.5052 16.2019 7.26777 16.2019 7.12132 16.3483L4.73483 18.7348ZM19.2652 19.2652C19.4116 19.1187 19.4116 18.8813 19.2652 18.7348L16.8787 16.3483C16.7322 16.2019 16.4948 16.2019 16.3483 16.3483C16.2019 16.4948 16.2019 16.7322 16.3483 16.8787L18.4697 19L16.3483 21.1213C16.2019 21.2678 16.2019 21.5052 16.3483 21.6517C16.4948 21.7981 16.7322 21.7981 16.8787 21.6517L19.2652 19.2652ZM5 19.375L19 19.375V18.625L5 18.625V19.375Z" fill="#AFAFAF"/>
</svg>
