<svg width="24" height="24" viewBox="0 0 24 24" fill="none" xmlns="http://www.w3.org/2000/svg">
<path d="M15.139 7.03273L19 9.04158V5H6.09865C5.48969 5 5 5.37219 5 5.83504V13.6224L7.64305 14.1902C7.78117 14.2188 7.91928 14.1568 7.96322 14.0566L8.62242 12.2434C8.66638 12.1145 8.86727 12.0573 9.01794 12.1336L15.3399 15.4404C15.5785 15.5644 15.4027 15.8507 15.1265 15.7887L10.2547 14.7532C10.1166 14.7246 9.9722 14.7866 9.9408 14.8916L9.29417 16.7048C9.25023 16.8337 9.04305 16.8909 8.89866 16.8146L5 14.7628V19H17.8135C18.4664 19 18.9937 18.5944 18.9937 18.1029V10.2059L16.3821 9.65235C16.2439 9.62371 16.1058 9.68574 16.0682 9.78597L15.3901 11.6039C15.3399 11.7328 15.1453 11.7853 14.9946 11.7137L8.66638 8.40219C8.4278 8.27811 8.60358 7.99182 8.87983 8.05385L13.7516 9.08931C13.8897 9.11792 14.0278 9.05589 14.0655 8.95569L14.7435 7.13769C14.7937 7.01363 14.9883 6.95638 15.139 7.03273Z" fill="#AFAFAF"/>
</svg>
